<?xml version="1.0" encoding="utf-8"?>
<!-- Generator: Adobe Illustrator 25.2.1, SVG Export Plug-In . SVG Version: 6.00 Build 0)  -->
<svg version="1.0" id="Layer_1" xmlns="http://www.w3.org/2000/svg" xmlns:xlink="http://www.w3.org/1999/xlink" x="0px" y="0px"
	 width="216px" height="72px" viewBox="0 0 216 72" style="enable-background:new 0 0 216 72;" xml:space="preserve">
<style type="text/css">
	.st0{fill:#FFFFFF;}
	.st1{fill:#D0D91F;}
	.st2{fill:#FC7753;}
	.st3{fill:#57D7DB;}
	.st4{fill:#BB98B6;}
	.st5{fill:#F6E036;}
	.st6{fill:#47B8D1;}
	.st7{fill:#FFBE54;}
	.st8{fill:#8CDCB6;}
</style>
<g>
	<g id="JtUTLT.tif">
		<path d="M52.04,25.66c-0.2,2.34-1.22,3.6-1.45,4.23c-0.05,0.13-0.12,0.25-0.24,0.48c-0.04-0.13-0.07-0.25-0.09-0.38
			c-0.07-2.43-0.39-4.82-1.1-7.16c-0.56-1.85-1.49-3.43-3.28-4.35c-1.15-0.59-2.39-0.81-3.66-0.88c-1.88-0.11-3.77-0.17-5.66-0.22
			c-1.65-0.05-3.31,0.03-4.94-0.15c-1.28-0.14-2.52-0.59-3.78-0.9c-0.64-0.16-1.27-0.31-1.91-0.45c-0.67-0.15-1.42,0-1.34,0.93
			c0.06,0.79,0.62,1.57,0.61,1.68c-0.22-0.06-0.43-0.14-0.63-0.23c-2.06-1.13-4.25-1.94-6.57-2.31c-2.83-0.45-5.59-0.19-8.1,1.35
			S5.58,21,4.28,23.59c-0.95,1.91-1.71,3.91-2.54,5.87c-0.12,0.28-0.17,0.58-0.26,0.87c-0.01,0.04-0.07,0.07-0.17,0.16
			c-0.08-0.16-0.14-0.32-0.2-0.49c-0.67-2.59-0.71-4.28-0.73-7.95c-0.04-2.9,0.64-4.98,1.71-7.28c0.48-1.03,1.06-2.03,1.94-2.79
			c0.45-0.39,0.55-0.76,0.33-1.35C3.91,9.4,3.4,8.14,3.23,6.86c-0.2-1.52-0.09-3.08-0.07-4.63c0-0.4,0.23-0.67,0.71-0.54
			c0.58,0.16,1.16,0.32,1.75,0.48c0.17,0.06,0.34,0.11,0.51,0.14c0.15,0.01,0.66-0.03,0.36-0.53C6.27,1.18,6.04,0.59,5.82,0h0.11
			c0.08,0.07,0.16,0.14,0.24,0.21c1.19,0.78,2.56,0.96,3.93,1.04c1.49,0.08,2.98,0.04,4.48,0.01c2.6-0.05,5.2-0.17,7.8-0.19
			c2.36-0.02,4.7,0.05,7.06,0.11c0.71,0.01,1.42,0.06,2.13,0.16c1.34,0.2,2.69,0.34,3.99,0.7C37.09,2.46,38.6,3,40.06,3.66
			c1.69,0.78,3,2.06,4.07,3.6c0.29,0.38,0.67,0.68,1.11,0.86c2.86,1.22,4.98,3.2,6.22,6.03C52.73,16.45,52.3,24.72,52.04,25.66z"/>
		<path d="M52.42,38.19c-0.05,0.2-0.26,0.49-0.44,0.52c-1.04,0.19-1.4,1-1.66,1.84c-0.23,0.74-0.26,1.55-0.47,2.3
			c-0.11,0.4-0.34,0.92-0.66,1.08c-0.93,0.47-1.91,0.93-2.92,1.13c-2.49,0.5-5.02,0.69-7.56,0.56c-2.03-0.11-4.09-0.16-6.05-0.91
			c-1-0.38-1.62-1.07-1.99-2.02c-0.37-0.93-0.65-1.88-1.03-2.8c-0.44-1.06-1.3-1.76-2.33-2.17c-0.49-0.17-1.02-0.17-1.5,0.01
			c-1.46,0.6-2.28,1.77-2.75,3.27c-0.29,0.94-0.66,1.89-1.18,2.72c-0.57,0.91-1.65,1.15-2.64,1.36c-2.27,0.47-4.59,0.65-6.91,0.54
			c-2.25-0.11-4.52-0.18-6.7-0.91c-1.07-0.36-1.71-1.06-2.07-2.12c-0.3-0.91-0.63-1.82-1.01-2.69c-0.25-0.6-0.76-1.06-1.39-1.24
			c-0.21-0.06-0.44-0.4-0.46-0.63c-0.15-1.43-0.23-2.87-0.36-4.31c-0.04-0.47,0.16-0.7,0.61-0.74c1.58-0.15,3.15-0.29,4.73-0.45
			c3.86-0.39,7.73-0.18,11.6-0.2c2.29-0.01,4.52,0.31,6.65,1.29c1.85,0.85,3.78,0.74,5.64-0.14c1.35-0.65,2.83-1,4.33-1.04
			c3.67-0.08,7.35-0.16,11.02-0.09c2.22,0.04,4.43,0.38,6.64,0.59c0.39,0.04,0.78,0.1,1.16,0.15
			C52.73,33.08,52.57,37.65,52.42,38.19z M40.87,33.33L40.87,33.33c-1.62,0-3.24,0-4.86,0c-1.2,0-2.38,0.26-3.46,0.77
			c-1.41,0.66-2.18,1.78-2.17,3.38c0.02,1.62,0.38,3.23,1.04,4.71c0.38,0.85,1.03,1.55,1.86,1.99c1.3,0.72,2.75,0.69,4.16,0.76
			c1.74,0.09,3.5,0.08,5.25,0c1.36-0.06,2.75-0.16,3.98-0.87c1-0.58,1.84-1.29,2.24-2.46c0.52-1.47,0.72-3.02,0.61-4.58
			c-0.19-2.36-1.56-3.48-3.72-3.68C44.15,33.21,42.5,33.33,40.87,33.33L40.87,33.33z M12.39,33.22c-1.18,0-2.36-0.06-3.53,0.02
			c-0.98,0.07-1.99,0.2-2.92,0.51c-1.55,0.5-2.5,2.3-2.31,4.18c0.12,1.16,0.15,2.34,0.6,3.46c0.49,1.22,1.22,2.19,2.43,2.77
			c1.21,0.58,2.5,0.78,3.79,0.79c2.56,0.01,5.13-0.05,7.69-0.22c1.64-0.11,2.96-0.96,3.64-2.52c0.7-1.59,1.12-3.27,1.07-5.02
			c-0.03-0.96-0.46-1.75-1.17-2.38c-1.12-0.99-2.51-1.37-3.94-1.44C15.95,33.26,12.39,33.22,12.39,33.22z"/>
		<path d="M51.78,41.38c0.37,0.71,0.64,1.44,0.65,2.22c0.02,2.37,0.07,4.73-0.38,7.09c-0.52,2.76-0.95,5.54-1.39,8.31
			c-0.18,1.11-0.35,2.2-0.98,3.18c-0.76,1.18-1.82,2.04-2.93,2.83c-1.75,1.23-3.65,2.23-5.66,2.99c-2.26,0.86-4.53,1.67-6.83,2.41
			c-1.59,0.51-3.21,0.93-4.84,1.29c-1.68,0.37-3.38,0.38-5.1,0.16c-2.25-0.29-4.39-0.95-6.44-1.86c-1.75-0.75-3.44-1.62-5.07-2.61
			c-2.94-1.81-5.82-3.71-8.67-5.65c-1.31-0.89-2.11-2.24-2.71-3.68c-1.35-3.24-1.54-6.65-1.34-10.08c0.13-2.21,0.6-4.4,0.91-6.6
			c0.03-0.14,0.08-0.28,0.12-0.42c0.11,0.29,0.18,0.44,0.21,0.59c0.48,2.06,0.93,4.13,1.46,6.17c0.21,0.85,0.71,1.61,1.42,2.13
			c1.93,1.44,3.81,2.93,5.97,4.02c0.34,0.19,0.71,0.34,1.08,0.45c0.19,0.05,0.45-0.03,0.64-0.13c1.33-0.68,2.62-1.45,3.97-2.07
			c1.89-0.86,3.89-1.4,5.99-1.37c1.4,0.02,2.77,0.25,3.92,1.18c0.18,0.14,0.35,0.3,0.5,0.48c0.26,0.34,0.54,0.32,0.81,0.05
			c1.65-1.62,3.67-1.98,5.84-1.56c1.48,0.28,2.8,1.01,4.08,1.81c0.74,0.46,1.48,0.93,2.23,1.37c0.18,0.11,0.4,0.16,0.61,0.15
			c2.46-0.36,4.82-1.21,6.94-2.49c1.1-0.66,1.64-1.73,2.07-2.83C49.73,46.62,51.68,41.46,51.78,41.38z M32.97,60.2
			c0.52-0.09,0.92-0.1,1.29-0.24c1.82-0.71,2.7-2.22,3.24-3.98c0.1-0.31-0.02-0.54-0.39-0.63c-0.86-0.21-1.71-0.46-2.57-0.71
			c-1.96-0.56-3.98-0.8-6.01-0.84c-1.81-0.04-3.63,0.1-5.44,0.19c-2.03,0.1-4.02,0.55-5.95,1.17c-1.26,0.4-1.32,0.11-0.74,1.55
			c0.74,1.83,2.1,2.97,4.02,3.3c1.27,0.22,2.54-0.02,3.79-0.39c0.93-0.27,1.92-0.5,2.87-0.49c1.07,0.01,2.14,0.3,3.2,0.49
			C31.21,59.8,32.15,60.03,32.97,60.2z"/>
	</g>
	<g>
		<path d="M69.99,32.33h-3.08V3.73h4.62l5.02,18.88L81.6,3.73h4.62v28.6h-3.08V8.65l-5.15,19.27h-2.86L69.99,8.65V32.33z"/>
		<path d="M98.1,32.33h-3.08V3.73h3.08V32.33z"/>
		<path d="M110.03,32.33h-3.08V3.73h3.08v12.14l7.66-12.14h3.43l-7.79,12.32l8.32,16.28h-3.39l-6.78-13.33l-1.45,2.33V32.33z"/>
		<path d="M137.7,26.83v-2.42h3.08v2.42c0,1.97-0.6,3.48-1.8,4.55c-1.2,1.07-3.01,1.61-5.41,1.61s-4.22-0.54-5.46-1.61
			c-1.23-1.07-1.85-2.59-1.85-4.55V9.23c0-1.96,0.6-3.48,1.8-4.55c1.2-1.07,3.01-1.61,5.41-1.61s4.22,0.54,5.46,1.61
			c1.23,1.07,1.85,2.59,1.85,4.55v9.68h-11.44v7.92c0,2.35,1.39,3.52,4.18,3.52C136.31,30.35,137.7,29.17,137.7,26.83z M129.34,9.23
			v7.04h8.36V9.23c0-2.35-1.39-3.52-4.18-3.52C130.73,5.71,129.34,6.88,129.34,9.23z"/>
		<path d="M79.89,68.33H66.91v-28.6h12.54v2.64h-9.46v10.12h7.7v2.64h-7.7v10.56h9.9V68.33z"/>
		<path d="M86.49,68.33v-28.6h3.08v25.96h8.05v2.64H86.49z"/>
		<path d="M116.89,62.83c0,4.11-2.48,6.16-7.44,6.16c-4.96,0-7.44-2.05-7.44-6.16v-3.74h3.08V63c0,1.06,0.37,1.88,1.1,2.46
			c0.73,0.59,1.82,0.88,3.26,0.88c1.44,0,2.52-0.29,3.26-0.88c0.73-0.59,1.1-1.39,1.1-2.4s-0.11-1.82-0.33-2.42
			c-0.22-0.6-0.67-1.24-1.34-1.91l-7.74-7.57c-0.91-0.91-1.53-1.8-1.87-2.66c-0.34-0.86-0.51-1.96-0.51-3.28
			c0-1.96,0.61-3.48,1.83-4.55c1.22-1.07,3.06-1.61,5.52-1.61c4.72,0,7.08,2.05,7.08,6.16v3.74h-3.08v-3.92
			c0-1.06-0.34-1.88-1.03-2.46c-0.69-0.59-1.72-0.88-3.1-0.88c-1.38,0-2.41,0.29-3.1,0.88c-0.69,0.59-1.03,1.39-1.03,2.42
			c0,1.03,0.1,1.83,0.31,2.42c0.2,0.59,0.66,1.2,1.36,1.85l7.88,7.57c0.85,0.94,1.44,1.84,1.76,2.71
			C116.73,60.41,116.89,61.51,116.89,62.83z"/>
		<path d="M127.89,68.33h-3.08v-28.6h1.32l1.1,2.82c0.62-1.06,1.42-1.9,2.42-2.53c1-0.63,2.08-0.95,3.26-0.95
			c2.96,0,4.85,1.07,5.68,3.21c1.41-2.14,3.26-3.21,5.54-3.21c4.14,0,6.2,2.05,6.2,6.16v23.1h-3.08v-23.1
			c0-2.35-1.06-3.52-3.17-3.52c-1.23,0-2.37,0.5-3.41,1.5c-1.04,1-1.56,1.97-1.56,2.9v22.22h-3.08v-23.1c0-2.35-1.06-3.52-3.17-3.52
			c-1.23,0-2.37,0.48-3.41,1.43c-1.04,0.95-1.56,1.9-1.56,2.84V68.33z"/>
		<path d="M172.99,45.23v17.6c0,1.97-0.62,3.48-1.87,4.55c-1.25,1.07-3.11,1.61-5.59,1.61c-2.48,0-4.35-0.54-5.61-1.61
			c-1.26-1.07-1.89-2.59-1.89-4.55v-17.6c0-1.96,0.62-3.48,1.87-4.55c1.25-1.07,3.11-1.61,5.59-1.61c2.48,0,4.35,0.54,5.61,1.61
			C172.36,41.74,172.99,43.26,172.99,45.23z M169.91,62.83v-17.6c0-2.35-1.47-3.52-4.4-3.52s-4.4,1.17-4.4,3.52v17.6
			c0,2.35,1.47,3.52,4.4,3.52S169.91,65.17,169.91,62.83z"/>
		<path d="M184.21,68.33h-3.08v-28.6h1.32l1.28,3.26c0.94-2.61,2.43-3.92,4.49-3.92c3.49,0,5.24,1.91,5.24,5.72v2.86h-2.95v-3.04
			c0-1.94-0.81-2.9-2.42-2.9c-0.97,0-1.86,0.56-2.66,1.67c-0.81,1.12-1.21,2.73-1.21,4.84V68.33z"/>
		<path d="M209.51,62.83v-2.42h3.08v2.42c0,1.97-0.6,3.48-1.8,4.55c-1.2,1.07-3.01,1.61-5.41,1.61s-4.22-0.54-5.46-1.61
			c-1.23-1.07-1.85-2.59-1.85-4.55v-17.6c0-1.96,0.6-3.48,1.8-4.55c1.2-1.07,3.01-1.61,5.41-1.61s4.22,0.54,5.46,1.61
			c1.23,1.07,1.85,2.59,1.85,4.55v9.68h-11.44v7.92c0,2.35,1.39,3.52,4.18,3.52C208.11,66.35,209.51,65.17,209.51,62.83z
			 M201.15,45.23v7.04h8.36v-7.04c0-2.35-1.39-3.52-4.18-3.52C202.54,41.71,201.15,42.88,201.15,45.23z"/>
	</g>
</g>
</svg>
